<svg xmlns="http://www.w3.org/2000/svg" viewBox="0 0 24 28">
  <path fill="#6366f1" d="m0 14.227.001-8.514 2.377.993c1.458.61 2.408 1.535 2.407 3.116v8.466l-2.422-1.012C1.058 16.73 0 15.64 0 14.227zM19.215 14.227l.001-8.514 2.377.993c1.458.61 2.408 1.535 2.407 3.116v8.466l-2.422-1.012c-1.305-.546-2.363-1.635-2.363-3.049z" />
  <path fill="#a5b4fc" d="m14.393 23.939-.001-8.514-2.377.993c-1.458.61-2.408 1.535-2.407 3.116V28l2.422-1.012c1.305-.546 2.363-1.635 2.363-3.049zM14.393 8.514 14.392 0l-2.377.994c-1.458.61-2.408 1.535-2.407 3.115v8.466l2.422-1.012c1.305-.546 2.363-1.634 2.363-3.049z" />
</svg>